# xmcd
#
# Track frame offsets: 
#        150
#        20702
#        37315
#        59392
#        79337
#        101305
#        113450
#        131900
#        150175
#        167700
#        187887
#        209575
#        227775
#        247245
#
# Disc length: 3551 seconds
#
# Revision: 0
# Processed by: cddbd v1.5.2PL0 Copyright (c) Steve Scherf et al.
# Submitted via: ExactAudioCopy v0.99pb3
#
DISCID=be0ddd0e
DTITLE=Various Artist - Hit des Slows Vol 3
DYEAR=1900
DGENRE=Blues
TTITLE0=I will always love you - Dolly Parton
TTITLE1=Only the very best - Plamondon - Rice, Berger
TTITLE2=Le reve du pecheur - A.Souchon
TTITLE3=Now that the magic - J.Miles
TTITLE4=Nurr - Goldman
TTITLE5=The dock of the bay - Reding Coropper
TTITLE6=Une femme avec une femme - JM Cano
TTITLE7=Laura - Goldman
TTITLE8=Il fault laisser le temps au temps - Grey
TTITLE9=Send me an angel - Meine
TTITLE10=Reality - Jeff Jordan, Cosma
TTITLE11=Le telephone pleure - E.Roda, Gil
TTITLE12=Il voyage en soutaire - G.Manset
TTITLE13=La musica - Sardou
EXTD=
EXTT0=
EXTT1=
EXTT2=
EXTT3=
EXTT4=
EXTT5=
EXTT6=
EXTT7=
EXTT8=
EXTT9=
EXTT10=
EXTT11=
EXTT12=
EXTT13=
PLAYORDER=
